# xmcd
# 
# Track frame offsets:
#     187
#     20955
#     37542
#     58260
#     79162
#     102902
#     129097
#     149272
#     167542
#     184982
#     209780
#     230047
# 
# Disc length: 3331
# 
# Revision: 9
# Processed by: cddbd v1.5.2PL0 Copyright (c) Steve Scherf et al.
# Submitted via: fre:ac v1.0.17
# 
DISCID=a80d010c
DTITLE=U2 - Achtung Baby (Japanese Import)
DYEAR=1991
DGENRE=Rock
TTITLE0=Zoo Station 
TTITLE1=Even Better Than The Real Thing
TTITLE2=One
TTITLE3=Until The End Of The World
TTITLE4=Who's Gonna Ride Your Wild Horses 
TTITLE5=So Cruel
TTITLE6=The Fly
TTITLE7=Mysterious Ways
TTITLE8=Tryin' To Throw Your Arms Around The World
TTITLE9=Ultra Violet (Light My Way) 
TTITLE10=Acrobat
TTITLE11=Love Is Blindness
EXTD=
EXTT0=
EXTT1=
EXTT2=
EXTT3=
EXTT4=
EXTT5=
EXTT6=The Fly
EXTT7=
EXTT8=
EXTT9=
EXTT10=
EXTT11=
PLAYORDER=
